<svg xmlns="http://www.w3.org/2000/svg" width="1024" height="947" viewBox="0 0 1024 947" version="1.1">
	<path d="M 487 62.025 C 431.365 67.218, 382.877 89.187, 343.675 126.961 C 306.800 162.493, 284.398 204.451, 274.854 255.862 C 272.290 269.674, 271.231 305.115, 272.936 320.067 C 275.549 342.989, 282.465 369.168, 290.902 388.075 C 320.780 455.033, 381.731 505.362, 453 521.922 C 483.424 528.992, 519.139 529.726, 550.284 523.921 C 556.215 522.816, 561.625 521.697, 562.306 521.436 C 562.988 521.174, 569.385 525.913, 576.523 531.966 C 583.660 538.019, 589.837 542.978, 590.250 542.986 C 590.663 542.994, 591 516.900, 591 485 C 591 453.100, 590.757 427, 590.459 427 C 590.162 427, 586.449 428.871, 582.209 431.158 C 534.914 456.670, 484.217 457.634, 436.448 433.931 C 401.058 416.371, 369.113 379.620, 357.643 343.273 C 351.971 325.299, 350.583 315.943, 350.626 296 C 350.661 279.931, 351.015 275.836, 353.318 264.840 C 357.528 244.748, 363.440 229.951, 374.219 212.531 C 379.579 203.869, 392.018 188.054, 396.659 184 C 409.708 172.603, 413.550 169.563, 421 164.740 C 438.436 153.453, 455.043 146.483, 475.500 141.864 C 485.442 139.620, 486.061 139.605, 582.250 139.261 C 662.997 138.973, 679 138.691, 679 137.556 C 679 135.469, 660.806 118.722, 648.482 109.465 C 607.287 78.524, 563.711 63.216, 512.298 61.627 C 503.609 61.358, 492.225 61.537, 487 62.025 M 498.500 206.674 C 484.946 208.366, 468.722 214.148, 457.891 221.149 C 444.019 230.115, 430.112 247.436, 423.862 263.531 C 419.096 275.805, 417.670 284.777, 418.305 298.500 C 418.996 313.422, 420.597 319.458, 427.722 334 C 432.935 344.640, 434.147 346.285, 443.928 356 C 449.743 361.775, 457.058 368, 460.185 369.833 C 489.187 386.834, 525.069 386.604, 552.988 369.238 C 560.435 364.605, 575.634 350.577, 577.895 346.250 L 579.070 344 542.980 344 L 506.890 344 507.195 322.723 L 507.500 301.447 510.800 294.750 C 514.449 287.343, 519.576 282.460, 527.580 278.769 L 532.500 276.500 597.750 276.222 L 663 275.944 663 370.972 C 663 446.327, 663.259 466, 664.250 466.002 C 665.867 466.005, 683.908 447.554, 691.141 438.500 C 711.363 413.187, 726.974 381.124, 734.474 349.500 C 739.089 330.042, 740.407 317.925, 740.404 295 C 740.401 272.508, 739.009 258.940, 734.982 242.142 L 732.979 233.784 741.739 223.764 C 755.710 207.784, 755.917 207.537, 755.959 206.750 C 755.999 206.014, 504.382 205.940, 498.500 206.674 M 198.153 624.074 C 185.650 626.533, 173.987 632.912, 164.500 642.482 C 151.561 655.534, 145.786 670.556, 145.654 691.500 C 145.568 705.144, 147.080 712.343, 152.377 723.500 C 158.233 735.836, 168.508 746.510, 180.478 752.693 C 200.890 763.237, 228.360 763.225, 248.500 752.663 C 257.711 747.832, 270.656 734.403, 275.553 724.598 L 279.500 716.697 279.816 699.848 L 280.132 683 244.066 683 L 208 683 208 695 L 208 707 228.567 707 L 249.135 707 248.435 709.250 C 247.056 713.690, 240.891 721.806, 236.886 724.457 C 230.483 728.694, 225.542 730, 215.912 730 C 204.485 730, 197.768 727.600, 191.202 721.174 C 182.861 713.009, 179.406 702.549, 180.237 687.972 C 180.892 676.485, 184.288 668.765, 191.644 662.043 C 198.123 656.121, 204.130 653.944, 214.135 653.891 C 225.468 653.832, 234.121 657.585, 238.969 664.660 L 241.258 668 259.629 668 C 269.733 668, 278 667.752, 278 667.449 C 278 667.147, 276.612 663.387, 274.916 659.095 C 267.820 641.137, 250.781 627.605, 230.907 624.144 C 223.419 622.840, 204.632 622.800, 198.153 624.074 M 289.460 625.250 C 289.197 625.938, 289.099 656.425, 289.241 693 L 289.500 759.500 343.956 759.500 L 398.412 759.500 402 748 L 405.587 736.500 430.705 736.233 L 455.822 735.966 459.743 747.733 L 463.665 759.500 481.008 759.774 C 490.547 759.925, 498.674 759.700, 499.067 759.274 C 499.461 758.848, 498.206 754.450, 496.279 749.500 C 494.351 744.550, 488.606 728.800, 483.511 714.500 C 474.051 687.944, 466.259 666.368, 456.330 639.229 L 450.743 623.959 431.219 624.229 L 411.695 624.500 404.339 644.500 C 400.293 655.500, 394.682 671.025, 391.870 679 C 389.059 686.975, 383.831 701.375, 380.253 711 C 376.676 720.625, 372.026 733.450, 369.921 739.500 L 366.093 750.500 366.047 741.750 L 366 733 344.500 733 L 323 733 323 678.500 L 323 624 306.469 624 C 294.165 624, 289.815 624.320, 289.460 625.250 M 505 691.424 L 505 759 507.750 759.025 C 540.826 759.321, 580.181 758.726, 584.181 757.868 C 596.224 755.285, 605.635 748.290, 610.641 738.201 C 613.152 733.139, 613.467 731.436, 613.452 723 C 613.427 708.715, 609.193 700.550, 598.026 693.253 L 592.016 689.326 597.122 686.018 C 602.504 682.531, 607.344 676.022, 609.007 670.035 C 609.547 668.091, 609.991 663.242, 609.994 659.261 C 610.007 642.887, 601.940 632.400, 585 626.767 C 578.911 624.742, 576.174 624.582, 541.750 624.227 L 505 623.848 505 691.424 M 662.119 626.250 C 661.662 627.487, 658.542 635.925, 655.185 645 C 648.504 663.065, 641.883 681.337, 630.361 713.500 C 622.293 736.023, 615.624 754.402, 614.476 757.274 C 613.812 758.938, 614.867 759.030, 631.596 758.774 L 649.424 758.500 652.904 747.500 C 654.817 741.450, 656.860 736.175, 657.442 735.779 C 658.024 735.382, 669.300 735.157, 682.500 735.279 L 706.500 735.500 710.492 747.250 L 714.484 759 728.992 759.106 C 736.971 759.164, 744.962 759.295, 746.750 759.396 C 750.567 759.612, 750.685 758.969, 748.035 752.383 C 746.954 749.698, 743.998 741.650, 741.467 734.500 C 738.936 727.350, 733.316 711.825, 728.978 700 C 724.640 688.175, 719.010 672.650, 716.467 665.500 C 705.643 635.070, 703.018 627.903, 702.003 626.006 C 700.986 624.106, 699.925 624, 681.940 624 C 663.160 624, 662.941 624.025, 662.119 626.250 M 756.667 624.667 C 755.741 625.592, 755.824 758.782, 756.750 759.306 C 757.163 759.539, 764.807 759.507, 773.739 759.234 L 789.977 758.737 790.239 719.118 L 790.500 679.500 802.091 697 C 808.467 706.625, 820.272 724.513, 828.326 736.750 C 836.574 749.283, 843.631 759.013, 844.484 759.030 C 845.318 759.047, 852.300 759.061, 860 759.061 C 867.700 759.061, 874.675 759.047, 875.500 759.030 C 876.818 759.004, 877 750.817, 877 691.476 L 877 623.952 860.250 624.226 L 843.500 624.500 843 664.213 L 842.500 703.927 826.164 679.213 C 817.178 665.621, 805.319 647.638, 799.809 639.250 L 789.792 624 773.563 624 C 764.637 624, 757.033 624.300, 756.667 624.667 M 538.750 651.580 C 537.857 652.476, 537.733 674.140, 538.607 676.418 C 539.563 678.909, 563.945 678.662, 569.576 676.105 C 576.420 672.996, 578.960 664.727, 575.044 658.304 C 571.382 652.298, 569.087 651.536, 553.547 651.163 C 545.821 650.978, 539.163 651.166, 538.750 651.580 M 429.955 665.572 C 426.707 673.980, 415.799 708.132, 416.225 708.558 C 416.497 708.831, 423.438 708.929, 431.648 708.777 L 446.576 708.500 438.831 685.572 C 431.571 664.079, 431.015 662.827, 429.955 665.572 M 673.933 685.195 C 669.845 697.343, 666.350 707.669, 666.167 708.141 C 665.983 708.614, 672.846 709, 681.417 709 C 689.987 709, 697 708.612, 697 708.138 C 697 706.354, 682.898 664.055, 682.149 663.592 C 681.718 663.326, 678.021 673.047, 673.933 685.195 M 538.437 704.303 C 538.162 705.019, 538.064 711.432, 538.219 718.553 L 538.500 731.500 553.500 731.783 C 565.874 732.017, 569.160 731.770, 572.267 730.374 C 577.355 728.087, 580 723.571, 580 717.167 C 580 712.899, 579.498 711.498, 576.918 708.559 C 575.189 706.590, 572.225 704.601, 570.168 704.030 C 564.529 702.464, 539.059 702.683, 538.437 704.303" stroke="none" fill="#ffffff" fill-rule="evenodd"/>
</svg>